<svg width="90" height="62" viewBox="0 0 90 62" fill="none" xmlns="http://www.w3.org/2000/svg">
<path d="M44.6949 61.9375C40.4452 61.9816 36.3013 60.6133 32.9145 58.0474C32.7452 57.9046 32.6371 57.7023 32.6127 57.4822C32.5883 57.2621 32.6493 57.041 32.7832 56.8646C32.9171 56.6882 33.1136 56.5699 33.3323 56.5341C33.5509 56.4983 33.775 56.5477 33.9582 56.6722C37.0446 59.0031 40.8172 60.2453 44.6855 60.2044C48.5378 60.2118 52.2904 58.9809 55.3891 56.6934C55.4788 56.628 55.5805 56.581 55.6885 56.5551C55.7964 56.5293 55.9085 56.5251 56.018 56.5428C56.1276 56.5606 56.2326 56.5999 56.3269 56.6585C56.4211 56.7171 56.5028 56.7938 56.5672 56.8841C56.7012 57.0704 56.7563 57.3019 56.7206 57.5285C56.6849 57.7551 56.5612 57.9585 56.3764 58.0945C52.9948 60.6066 48.8894 61.955 44.676 61.9375H44.6949Z" fill="white"/>
<path d="M29.0764 53.7315C28.9368 53.7297 28.7996 53.6943 28.6766 53.6283C28.5536 53.5623 28.4483 53.4676 28.3696 53.3524C26.0728 50.053 24.8464 46.1277 24.8566 42.1083C24.8547 39.0101 25.5795 35.9545 26.9729 33.1869C28.3663 30.4193 30.3894 28.0167 32.88 26.1719C35.3705 24.3272 38.2591 23.0917 41.3139 22.5646C44.3687 22.0375 47.5045 22.2335 50.4698 23.1368C53.4351 24.0401 56.1471 25.6256 58.3884 27.7661C60.6296 29.9066 62.3376 32.5423 63.3751 35.4619C64.4127 38.3814 64.751 41.5034 64.3629 44.5773C63.9748 47.6511 62.8711 50.5912 61.1403 53.1616C61.0149 53.3442 60.8242 53.4717 60.6074 53.5178C60.3907 53.5639 60.1646 53.5251 59.9756 53.4094C59.7867 53.2937 59.6494 53.1099 59.5921 52.896C59.5348 52.6821 59.5619 52.4543 59.6678 52.2598C59.6913 52.2362 59.6913 52.2127 59.7149 52.1891C61.2911 49.8401 62.2948 47.1547 62.6453 44.3482C62.9959 41.5417 62.6836 38.6921 61.7336 36.0279C60.7836 33.3637 59.2222 30.9591 57.1746 29.0068C55.1271 27.0544 52.6503 25.6088 49.9429 24.7856C47.2355 23.9625 44.3728 23.7848 41.5843 24.2668C38.7958 24.7488 36.1591 25.8771 33.8856 27.5613C31.6121 29.2454 29.765 31.4385 28.4925 33.9647C27.2199 36.4909 26.5573 39.28 26.5577 42.1083C26.5284 45.775 27.649 49.3587 29.762 52.3563C29.8852 52.5423 29.9317 52.7687 29.8917 52.9881C29.8517 53.2075 29.7285 53.403 29.5476 53.5337C29.493 53.6044 29.4206 53.6593 29.3378 53.6928C29.255 53.7263 29.1648 53.7372 29.0764 53.7244V53.7315Z" fill="white"/>
<path d="M44.8598 50.0297C43.8318 50.0297 42.8269 49.725 41.9722 49.1542C41.1175 48.5834 40.4513 47.7721 40.0579 46.8229C39.6645 45.8737 39.5616 44.8293 39.7622 43.8216C39.9627 42.8139 40.4577 41.8883 41.1846 41.1619C41.9115 40.4354 42.8376 39.9406 43.8458 39.7402C44.854 39.5398 45.8991 39.6426 46.8488 40.0358C47.7985 40.429 48.6103 41.0948 49.1814 41.949C49.7525 42.8033 50.0573 43.8076 50.0573 44.835C50.0573 46.2127 49.5097 47.534 48.535 48.5082C47.5603 49.4824 46.2383 50.0297 44.8598 50.0297ZM44.8598 41.1333C44.1273 41.1333 43.4112 41.3504 42.8021 41.7572C42.193 42.1639 41.7183 42.742 41.438 43.4184C41.1577 44.0948 41.0843 44.8391 41.2272 45.5572C41.3701 46.2752 41.7229 46.9348 42.2409 47.4525C42.7588 47.9702 43.4188 48.3228 44.1372 48.4656C44.8557 48.6084 45.6004 48.5351 46.2772 48.255C46.954 47.9748 47.5324 47.5003 47.9394 46.8916C48.3463 46.2828 48.5636 45.5671 48.5636 44.835C48.5623 43.8536 48.1717 42.9128 47.4774 42.2189C46.7831 41.525 45.8417 41.1346 44.8598 41.1333Z" fill="white"/>
<path d="M41.1348 42.6991C41.0223 42.6997 40.9108 42.6781 40.8068 42.6353C40.7027 42.5926 40.6082 42.5297 40.5287 42.4502C40.4491 42.3707 40.3861 42.2762 40.3434 42.1722C40.3006 42.0682 40.2789 41.9568 40.2796 41.8443V23.5807C40.291 23.362 40.386 23.1562 40.5449 23.0055C40.7039 22.8548 40.9146 22.7708 41.1336 22.7708C41.3527 22.7708 41.5634 22.8548 41.7223 23.0055C41.8812 23.1562 41.9762 23.362 41.9877 23.5807V41.8467C41.988 41.9587 41.9662 42.0697 41.9234 42.1733C41.8807 42.2768 41.8178 42.3709 41.7386 42.4501C41.6593 42.5294 41.5652 42.5921 41.4616 42.6349C41.3579 42.6776 41.2469 42.6994 41.1348 42.6991V42.6991Z" fill="white"/>
<path d="M48.6107 42.9136C48.4982 42.9142 48.3867 42.8925 48.2827 42.8498C48.1786 42.807 48.0841 42.7441 48.0045 42.6646C47.925 42.5851 47.862 42.4906 47.8193 42.3866C47.7765 42.2826 47.7548 42.1712 47.7554 42.0588V23.6515C47.7669 23.4329 47.8619 23.227 48.0209 23.0763C48.1798 22.9256 48.3905 22.8416 48.6095 22.8416C48.8286 22.8416 49.0393 22.9256 49.1982 23.0763C49.3571 23.227 49.4521 23.4329 49.4636 23.6515V42.0588C49.4642 42.1712 49.4425 42.2826 49.3998 42.3866C49.357 42.4906 49.294 42.5851 49.2145 42.6646C49.135 42.7441 49.0404 42.807 48.9364 42.8498C48.8323 42.8925 48.7208 42.9142 48.6083 42.9136H48.6107Z" fill="white"/>
<path d="M44.8857 50.4322C38.2505 50.6104 31.7003 48.9083 25.9923 45.5225C25.8096 45.3971 25.682 45.2065 25.6359 44.9899C25.5898 44.7733 25.6286 44.5472 25.7444 44.3584C25.8601 44.1696 26.044 44.0324 26.2581 43.9751C26.4721 43.9179 26.7 43.9449 26.8947 44.0507C26.9182 44.0743 26.9418 44.0743 26.9654 44.0978C36.2695 50.2885 54.2606 50.1943 62.5917 43.9071C62.7749 43.7826 62.999 43.7331 63.2176 43.7689C63.4363 43.8047 63.6328 43.9231 63.7667 44.0995C63.9006 44.2759 63.9616 44.497 63.9372 44.7171C63.9128 44.9371 63.8048 45.1395 63.6354 45.2823C58.0684 48.8944 51.5178 50.6928 44.8857 50.4298V50.4322Z" fill="white"/>
<path d="M48.7049 43.1514C48.4766 43.1491 48.2579 43.0591 48.0943 42.8999C47.9306 42.7407 47.8346 42.5247 47.8261 42.2966C47.8208 42.0807 47.8993 41.8712 48.0451 41.7119C48.1909 41.5525 48.3927 41.4558 48.6083 41.4418C53.564 41.0466 58.3631 39.5209 62.6365 36.9819C62.8319 36.8692 63.0632 36.8359 63.2825 36.8889C63.5018 36.9419 63.6923 37.0773 63.8145 37.2668C63.9328 37.4608 63.9692 37.6937 63.9157 37.9145C63.8623 38.1352 63.7233 38.3257 63.5294 38.4442C59.0361 41.1277 53.9841 42.7393 48.7662 43.1538L48.6955 43.1302L48.7049 43.1514Z" fill="white"/>
<path d="M40.659 43.269H40.5647C35.578 42.6476 30.7586 41.0683 26.3717 38.6183C26.1702 38.5112 26.0195 38.3285 25.9528 38.1103C25.886 37.8922 25.9088 37.6565 26.0159 37.4551C26.1231 37.2536 26.3059 37.103 26.5242 37.0363C26.7425 36.9697 26.9783 36.9924 27.1798 37.0995C31.3736 39.4503 35.9841 40.965 40.7556 41.5594C40.9706 41.5869 41.1672 41.6948 41.3058 41.8613C41.4445 42.0278 41.5149 42.2406 41.503 42.4568C41.491 42.6731 41.3976 42.8769 41.2415 43.0271C41.0853 43.1774 40.878 43.2629 40.6613 43.2666L40.659 43.269Z" fill="white"/>
<path d="M44.8362 28.347C45.6222 28.347 46.2593 27.7102 46.2593 26.9247C46.2593 26.1392 45.6222 25.5024 44.8362 25.5024C44.0503 25.5024 43.4131 26.1392 43.4131 26.9247C43.4131 27.7102 44.0503 28.347 44.8362 28.347Z" fill="white"/>
<path d="M44.8362 33.0658C45.6222 33.0658 46.2593 32.429 46.2593 31.6435C46.2593 30.858 45.6222 30.2212 44.8362 30.2212C44.0503 30.2212 43.4131 30.858 43.4131 31.6435C43.4131 32.429 44.0503 33.0658 44.8362 33.0658Z" fill="white"/>
<path d="M44.8362 37.7635C45.6222 37.7635 46.2593 37.1267 46.2593 36.3412C46.2593 35.5557 45.6222 34.9189 44.8362 34.9189C44.0503 34.9189 43.4131 35.5557 43.4131 36.3412C43.4131 37.1267 44.0503 37.7635 44.8362 37.7635Z" fill="white"/>
<path d="M54.1405 46.3043C54.8874 46.3043 55.4929 45.6781 55.4929 44.9056C55.4929 44.1331 54.8874 43.5068 54.1405 43.5068C53.3936 43.5068 52.7881 44.1331 52.7881 44.9056C52.7881 45.6781 53.3936 46.3043 54.1405 46.3043Z" fill="white"/>
<path d="M59.4322 44.43C60.1791 44.43 60.7846 43.8038 60.7846 43.0313C60.7846 42.2588 60.1791 41.6326 59.4322 41.6326C58.6853 41.6326 58.0798 42.2588 58.0798 43.0313C58.0798 43.8038 58.6853 44.43 59.4322 44.43Z" fill="white"/>
<path d="M35.5556 46.2572C36.3025 46.2572 36.908 45.631 36.908 44.8585C36.908 44.086 36.3025 43.4597 35.5556 43.4597C34.8087 43.4597 34.2032 44.086 34.2032 44.8585C34.2032 45.631 34.8087 46.2572 35.5556 46.2572Z" fill="white"/>
<path d="M30.238 44.4769C30.9849 44.4769 31.5903 43.8507 31.5903 43.0782C31.5903 42.3057 30.9849 41.6794 30.238 41.6794C29.491 41.6794 28.8856 42.3057 28.8856 43.0782C28.8856 43.8507 29.491 44.4769 30.238 44.4769Z" fill="white"/>
<path d="M45.0012 58.6174C22.8799 58.6174 0 53.8018 0 45.7367C0 40.2336 10.1311 35.7737 27.0832 33.8051L28.412 33.6638L26.9159 38.2179L26.3928 38.3121C15.5925 40.1159 11.771 43.057 11.771 45.002C11.771 48.8215 25.2761 53.0672 44.6925 53.0672C64.109 53.0672 77.6141 48.8286 77.6141 45.002C77.6141 43.057 73.7689 40.1159 62.9687 38.3121L62.4456 38.2179L60.9495 33.6167L62.2783 33.758C75.6892 35.2768 90 39.214 90 45.7132C89.9764 53.8018 67.0965 58.6174 44.9988 58.6174H45.0012ZM25.9428 35.6771C9.21464 37.7964 1.70816 42.2234 1.70816 45.7344C1.70816 51.1198 19.1055 56.9078 45.0012 56.9078C70.8969 56.9078 88.2942 51.1433 88.2942 45.7344C88.2942 41.5594 78.1348 37.455 63.3951 35.6277L63.7509 36.7179C69.8037 37.7847 79.3222 40.2054 79.3222 44.9973C79.3222 51.3552 61.4725 54.7697 44.6878 54.7697C27.9031 54.7697 10.0534 51.3529 10.0534 44.9973C10.0534 40.1583 19.5484 37.7376 25.6035 36.6944L25.9357 35.6748L25.9428 35.6771Z" fill="white"/>
<path d="M51.61 25.3821C48.6908 23.0274 46.0567 17.5549 47.3384 15.2048C47.5008 14.8901 47.7365 14.6189 48.0255 14.414C48.3145 14.2091 48.6485 14.0765 48.9994 14.0274C51.0407 14.1658 52.9641 15.0333 54.4184 16.4717V8.49133C52.1637 10.3186 49.7675 11.4324 47.7484 9.39321C46.158 7.78018 47.9392 3.96073 49.2445 1.70721H40.4633C42.7652 5.85868 42.8194 8.30059 42.0301 9.2425C40.6165 10.9262 38.5408 10.6907 35.4331 8.43481V16.5117C36.8768 15.1072 38.7661 14.251 40.7744 14.091C41.1364 14.1381 41.4828 14.2675 41.787 14.4691C42.0913 14.6707 42.3453 14.9393 42.5296 15.2542C44.2142 18.1012 40.5835 22.773 38.1615 25.0996L36.9834 23.8657C39.6882 21.2566 41.9689 17.6514 41.0665 16.1326C41.0217 16.0368 40.9514 15.9552 40.8633 15.8966C40.7752 15.8381 40.6727 15.8048 40.567 15.8006C39.3324 15.6334 36.6512 17.6043 35.1787 19.0266L33.7297 20.4395V4.89794L35.1292 6.03765C39.4974 9.59572 40.4209 8.50545 40.7296 8.15695C40.9204 7.84847 41.0382 5.80217 38.2604 1.30219L37.3816 0H52.3168L51.4615 1.32809C49.7298 4.03138 48.2808 7.54235 48.9452 8.2064C49.7275 8.98818 50.8678 9.53449 54.6658 5.97642L56.1148 4.62478V20.3782L54.6658 18.9795C53.1461 17.5078 50.4885 15.5156 49.2468 15.7064C49.1552 15.7167 49.0677 15.7505 48.993 15.8045C48.9183 15.8586 48.8588 15.931 48.8204 16.0148C48.1795 17.1922 49.8877 21.8029 52.6655 24.0329L51.61 25.3821Z" fill="white"/>
<path d="M44.7891 17.0792C43.8031 17.0792 42.8392 16.787 42.0193 16.2394C41.1995 15.6919 40.5605 14.9137 40.1832 14.0033C39.8058 13.0928 39.7071 12.091 39.8994 11.1244C40.0918 10.1579 40.5666 9.27002 41.2639 8.57317C41.9611 7.87633 42.8494 7.40177 43.8165 7.20951C44.7836 7.01725 45.786 7.11593 46.697 7.49306C47.608 7.87019 48.3866 8.50883 48.9344 9.32824C49.4822 10.1476 49.7746 11.111 49.7746 12.0965C49.7749 12.7509 49.6462 13.399 49.3957 14.0036C49.1453 14.6083 48.7781 15.1577 48.3151 15.6205C47.8521 16.0832 47.3023 16.4502 46.6973 16.7005C46.0923 16.9508 45.4439 17.0795 44.7891 17.0792V17.0792ZM44.7891 8.60199C44.099 8.60199 43.4244 8.80652 42.8506 9.18973C42.2767 9.57293 41.8295 10.1176 41.5654 10.7548C41.3013 11.3921 41.2322 12.0933 41.3668 12.7698C41.5015 13.4463 41.8338 14.0677 42.3218 14.5554C42.8098 15.0431 43.4315 15.3753 44.1084 15.5098C44.7853 15.6444 45.4868 15.5753 46.1244 15.3114C46.762 15.0474 47.307 14.6004 47.6904 14.0269C48.0738 13.4534 48.2785 12.7792 48.2785 12.0894C48.2772 11.1649 47.9092 10.2786 47.2551 9.62481C46.601 8.97106 45.7142 8.60324 44.7891 8.60199V8.60199Z" fill="white"/>
</svg>
