<svg width="120" height="76" viewBox="0 0 120 76" fill="none" xmlns="http://www.w3.org/2000/svg">
<g clip-path="url(#clip0_201_23)">
<path d="M29.8198 33.6088C31.0657 33.6088 32.0756 32.5757 32.0756 31.3015C32.0756 30.0272 31.0657 28.9941 29.8198 28.9941C28.574 28.9941 27.5641 30.0272 27.5641 31.3015C27.5641 32.5757 28.574 33.6088 29.8198 33.6088Z" fill="black"/>
<path d="M47.4438 33.6088C48.6896 33.6088 49.6995 32.5757 49.6995 31.3015C49.6995 30.0272 48.6896 28.9941 47.4438 28.9941C46.1979 28.9941 45.188 30.0272 45.188 31.3015C45.188 32.5757 46.1979 33.6088 47.4438 33.6088Z" fill="black"/>
<path d="M33.0142 47.8435C32.7812 47.859 32.5506 47.7871 32.3656 47.6412C32.1806 47.4954 32.0539 47.2857 32.0091 47.0512C31.2347 43.3305 31.2347 39.4848 32.0091 35.7641C32.0697 35.522 32.2121 35.3097 32.4111 35.1647C32.6101 35.0197 32.8528 34.9513 33.0963 34.9718C33.8406 34.9718 33.692 34.1871 33.692 34.1871H26.301C25.9359 34.1871 25.8095 34.9718 26.5464 34.9718C26.7899 34.9513 27.0326 35.0197 27.2316 35.1647C27.4306 35.3097 27.573 35.522 27.6336 35.7641C28.408 39.4848 28.408 43.3305 27.6336 47.0512C27.5825 47.2885 27.4465 47.4977 27.2523 47.6376C27.0581 47.7775 26.8197 47.838 26.5841 47.8072C25.8398 47.8072 25.8398 48.6297 26.4429 48.6297H33.0948C33.7511 48.6275 33.7593 47.8435 33.0142 47.8435Z" fill="black"/>
<path d="M50.6456 47.8435C50.4125 47.859 50.1819 47.7871 49.9969 47.6412C49.8119 47.4954 49.6852 47.2857 49.6404 47.0512C49.2479 45.197 49.0532 43.3048 49.0594 41.4077C49.0131 39.734 49.1505 38.0604 49.4689 36.4181C49.5372 35.8558 49.661 35.3021 49.8385 34.7654C49.9574 34.4381 49.9279 34.1939 49.3026 34.1939H43.9271C43.5694 34.1939 43.4282 34.9786 44.1725 34.9786C44.416 34.9582 44.6587 35.0265 44.8577 35.1715C45.0567 35.3165 45.1991 35.5288 45.2597 35.7709C46.034 39.4916 46.034 43.3373 45.2597 47.058C45.2087 47.2953 45.0726 47.5045 44.8784 47.6444C44.6842 47.7843 44.4458 47.8448 44.2102 47.814C43.4659 47.814 43.4659 48.6365 44.069 48.6365H50.7209C51.375 48.6275 51.3824 47.8435 50.6456 47.8435Z" fill="black"/>
<path d="M119.46 72.6335C119.219 72.6548 118.978 72.5886 118.779 72.4466C118.58 72.3045 118.437 72.0957 118.373 71.8564C117.949 69.5793 117.792 66.6317 117.792 61.8772C117.8 58.6012 117.994 55.3285 118.373 52.0756C118.455 51.5804 118.492 51.4058 118.529 51.1314C118.566 50.8569 118.41 50.522 117.807 50.522H112.908C112.26 50.522 112.253 51.2909 112.99 51.2909C113.221 51.2748 113.449 51.3446 113.634 51.4874C113.819 51.6302 113.947 51.8364 113.995 52.0681C114.352 53.7452 114.544 55.4547 114.568 57.1711V59.0754C114.412 59.3264 114.225 59.464 114.025 59.3189C113.188 58.5694 112.099 58.1818 110.987 58.2378C108.947 58.2378 105.567 61.1469 105.567 66.1357C105.567 71.1246 107.912 73.7895 109.997 73.7895C112.968 73.7895 113.638 71.086 114.115 71.5351C114.052 71.9762 113.947 72.41 113.802 72.8301C113.69 73.1499 113.712 73.3933 114.338 73.3933H119.713C120.069 73.41 120.203 72.6335 119.46 72.6335ZM113.831 69.6481C113.52 69.9967 113.12 70.2498 112.677 70.379C112.233 70.5081 111.762 70.5082 111.319 70.3791C110.187 70.0972 109.286 68.7795 108.891 67.7331C108.623 66.8939 108.475 66.0191 108.452 65.1363C108.333 63.2856 108.891 59.0663 111.49 59.0663C113.024 59.0663 114.111 60.6351 114.573 62.4479V66.2937C114.565 66.9741 114.551 67.5275 114.528 68.0076C114.422 68.6001 114.185 69.1602 113.836 69.6451L113.831 69.6481Z" fill="black"/>
<path d="M45.508 34.3323L44.2723 34.1954C43.5125 34.1954 40.4156 34.203 40.0283 34.203C39.641 34.203 39.6706 34.553 39.8716 34.683C40.3243 34.9304 40.6928 35.3127 40.9282 35.7792C41.1635 36.2457 41.2547 36.7743 41.1895 37.295C40.789 38.6471 40.2437 39.9498 39.5634 41.1794C39.4156 41.4689 39.1466 41.5369 38.9529 41.2935C38.1522 39.5862 37.6519 37.748 37.4747 35.8632C37.46 35.5509 37.4008 35.1926 37.8443 35.0255C38.2877 34.8584 38.2759 34.1939 37.8517 34.1939H32.3047C31.5006 34.1939 31.9248 34.8947 32.5501 35.7702C33.7711 37.5445 34.8068 39.4449 35.6403 41.4402C36.3928 43.3184 37.0345 45.2411 37.5619 47.1979C37.6359 47.4647 38.0313 49.0637 38.0904 49.2391C38.1798 49.4984 38.4777 49.5286 38.5671 49.2693C39.1333 46.8856 39.6691 45.8499 41.0764 44.6842C41.7615 44.1051 41.1806 43.7399 40.8458 43.5502C40.539 43.358 40.2587 43.1248 40.0121 42.8569C39.9825 42.7544 39.9738 42.6467 39.9865 42.5406C39.9992 42.4345 40.0331 42.3322 40.086 42.24C40.3469 41.6844 41.851 37.8915 42.3196 37.1446C42.6049 36.6031 42.9993 36.1297 43.4767 35.7555C43.9541 35.3814 44.5036 35.1151 45.089 34.9741C45.7911 34.7896 45.508 34.3323 45.508 34.3323Z" fill="black"/>
<path d="M62.8489 37.8447C62.3426 35.6893 57.7114 31.9478 52.9161 36.0166C47.9427 40.4415 51.4046 48.7356 56.7506 48.7356C62.0965 48.7356 62.6996 44.471 62.4239 43.1533C62.4239 43.1533 62.2303 42.2544 61.605 43.1533C58.0758 46.9613 55.1748 43.9683 54.8222 42.993C55.5665 42.5515 62.5089 38.804 62.5089 38.804C62.629 38.678 62.7214 38.5272 62.78 38.3618C62.8386 38.1964 62.8621 38.0201 62.8489 37.8447ZM58.7313 39.5736C57.4189 40.437 56.0592 41.2228 54.6589 41.9271C54.4283 42.0261 54.1896 42.262 53.8769 41.4394L53.6833 40.9979C53.5566 40.6271 53.4449 40.251 53.3485 39.8707C52.3958 36.0779 55.9398 34.9431 57.6146 35.6439C59.2894 36.3447 59.2605 39.1004 58.7313 39.5729V39.5736Z" fill="black"/>
<path d="M104.084 37.8447C103.578 35.6893 98.9467 31.9478 94.1514 36.0166C89.1779 40.4415 92.6399 48.7356 97.9784 48.7356C103.317 48.7356 103.927 44.471 103.652 43.1533C103.652 43.1533 103.458 42.2544 102.833 43.1533C99.3036 46.9613 96.4027 43.9683 96.0501 42.993C96.7892 42.5515 103.737 38.804 103.737 38.804C103.737 38.804 104.203 38.3156 104.084 37.8447ZM99.974 39.5736C98.6616 40.437 97.3019 41.2228 95.9016 41.9271C95.671 42.0261 95.4322 42.262 95.1196 41.4394L94.9259 40.9979C94.7993 40.6271 94.6876 40.251 94.5911 39.8707C93.6384 36.0779 97.1824 34.9431 98.8572 35.6439C100.532 36.3447 100.502 39.1019 99.974 39.5751V39.5736Z" fill="black"/>
<path d="M39.3801 62.1924C38.8591 59.8851 34.1015 55.8791 29.1724 60.2351C24.0645 64.9798 27.6166 73.8598 33.1111 73.8598C38.6056 73.8598 39.2242 69.2905 38.9411 67.8813C38.9411 67.8813 38.7401 66.922 38.1 67.8813C34.474 71.9637 31.488 68.7575 31.1236 67.7135C31.8834 67.241 39.0158 63.2274 39.0158 63.2274C39.1452 63.0915 39.2447 62.9288 39.3075 62.7503C39.3704 62.5718 39.3952 62.3815 39.3801 62.1924ZM35.151 64.0469C33.8044 64.9684 32.4072 65.8099 30.9662 66.5674C30.7282 66.674 30.4821 66.9333 30.162 66.0495L29.9684 65.577C29.8378 65.1789 29.7236 64.7754 29.6262 64.3674C28.6432 60.3085 32.2914 59.0898 34.0194 59.836C35.7474 60.5821 35.6942 63.5404 35.151 64.0469Z" fill="black"/>
<path d="M90.719 48.1633C90.6672 47.9955 90.4972 47.8511 90.1757 47.8511C89.9446 47.8665 89.7159 47.7954 89.5323 47.651C89.3486 47.5066 89.2227 47.2988 89.1779 47.0663C89.1477 46.7913 89.1783 46.5127 89.2674 46.2514C89.6768 45.0713 90.2799 43.9667 90.6598 42.7738C91.1662 41.3517 91.3679 39.8349 91.2511 38.3262C91.1168 37.1756 90.594 36.109 89.7729 35.3105C89.0888 34.5868 88.18 34.1287 87.2021 34.0148C86.2241 33.9009 85.2379 34.1382 84.4122 34.6861C84.1217 34.8766 83.5563 35.3793 83.1912 35.3665C82.8786 35.3589 82.8416 35.176 82.8416 34.9779C82.8638 34.9166 82.8786 34.8562 82.9015 34.7874C83.0205 34.46 82.9909 34.2158 82.3656 34.2158H76.9975C76.6398 34.2158 76.4986 35.0006 77.2429 35.0006C77.4864 34.9801 77.7291 35.0484 77.9281 35.1934C78.1271 35.3384 78.2695 35.5508 78.3301 35.7929C79.1046 39.5135 79.1046 43.3593 78.3301 47.0799C78.2541 47.3196 78.1025 47.5267 77.8991 47.6687C77.6956 47.8107 77.4518 47.8796 77.2059 47.8647C76.8711 47.8722 76.5282 47.842 76.1934 47.8269C76.0443 47.8335 75.8954 47.8092 75.7557 47.7556C75.616 47.7019 75.4884 47.62 75.3804 47.5146C75.2088 47.3183 75.0908 47.0792 75.0382 46.8214C74.9905 46.5245 75.0188 46.22 75.1202 45.9376C75.5297 44.7568 76.1032 43.9955 76.4831 42.7919C76.9895 41.3699 77.1911 39.8531 77.0744 38.3444C76.9401 37.1937 76.4173 36.1271 75.5962 35.3287C74.9121 34.6049 74.0032 34.1469 73.0253 34.0329C72.0474 33.919 71.0612 34.1563 70.2355 34.7042C69.945 34.8947 69.3796 35.3975 69.0145 35.3846C68.7092 35.3771 68.6641 35.1941 68.6641 34.996C68.6863 34.9348 68.7011 34.8743 68.724 34.8055C68.843 34.4782 68.8134 34.234 68.1882 34.234H62.8201C62.4623 34.234 62.3212 35.0187 63.0654 35.0187C63.3089 34.9982 63.5517 35.0665 63.7507 35.2115C63.9496 35.3565 64.092 35.5689 64.1527 35.811C64.927 39.5317 64.927 43.3774 64.1527 47.0981C64.1016 47.3354 63.9656 47.5446 63.7714 47.6845C63.5771 47.8244 63.3388 47.8849 63.1031 47.8541C62.364 47.8541 62.3588 48.6766 62.962 48.6766H69.6139C70.2613 48.6766 70.2695 47.8919 69.5318 47.8919C69.2988 47.9073 69.0682 47.8354 68.8832 47.6896C68.6982 47.5438 68.5715 47.3341 68.5267 47.0996C68.1342 45.2454 67.9394 43.3532 67.9457 41.4561C67.9605 40.0854 67.812 38.3791 68.6161 37.199C68.8089 36.8927 69.0659 36.634 69.3685 36.4416C69.6711 36.2493 70.0116 36.1282 70.3656 36.0869C70.886 36.0467 71.4027 36.2039 71.8172 36.5284C73.336 37.7547 73.336 41.1816 71.9361 45.515C71.0426 48.0854 71.7721 48.5156 71.8467 48.5995C71.9214 48.6834 72.152 48.691 72.3234 48.691L77.4092 48.6834H83.7973C84.4447 48.6834 84.4529 47.8987 83.7152 47.8987C83.4822 47.9142 83.2516 47.8423 83.0666 47.6964C82.8816 47.5506 82.7548 47.3409 82.71 47.1064C82.3175 45.2522 82.1227 43.36 82.1291 41.4629C82.1439 40.0922 81.9953 38.3859 82.8069 37.2058C82.9997 36.8995 83.2567 36.6408 83.5593 36.4484C83.8618 36.2561 84.2024 36.135 84.5563 36.0937C85.0755 36.0545 85.5911 36.2086 86.0079 36.5277C87.5268 37.7539 87.5268 41.1809 86.1269 45.5143C85.2333 48.0847 85.9628 48.5148 86.0375 48.5987C86.1121 48.6827 86.3427 48.6902 86.5142 48.6902L90.3191 48.6827L90.3265 48.6751C90.6539 48.6063 90.7958 48.3727 90.736 48.1724L90.719 48.1633Z" fill="black"/>
<path d="M49.4401 65.0403C48.1149 64.248 46.5812 64.0658 45.174 63.4716C44.0572 62.9991 42.5235 62.2302 42.6647 60.7908C42.851 58.8562 44.7941 58.3996 46.1385 58.5515C46.4437 58.5893 47.5384 58.8411 47.1732 59.4806C46.8866 59.7118 46.6622 60.0137 46.5211 60.3579C46.3799 60.7022 46.3267 61.0775 46.3663 61.4486C46.406 61.8197 46.5373 62.1744 46.7478 62.4793C46.9583 62.7843 47.2412 63.0294 47.5699 63.1918C47.8985 63.3541 48.2622 63.4283 48.6265 63.4074C48.9909 63.3864 49.3441 63.2711 49.653 63.0721C49.9618 62.8731 50.216 62.5971 50.3919 62.27C50.5677 61.9429 50.6593 61.5754 50.6581 61.2021V61.1642C50.6644 60.6694 50.5009 60.1879 50.1962 59.8035L50.1888 59.7959C50.1276 59.7193 50.0604 59.648 49.9877 59.5827C48.6625 58.1894 46.6522 57.4273 44.0084 57.9074C41.2235 58.4101 39.63 60.824 39.8236 62.3398C40.0172 63.8556 40.2855 65.5234 46.4053 67.783C49.0786 68.7658 49.4578 70.8448 48.2664 71.9796C47.5638 72.563 46.6758 72.8612 45.7719 72.8172C44.5893 72.787 43.1658 72.5148 43.3225 71.7891C43.6414 71.6142 43.9076 71.3537 44.0926 71.0356C44.2775 70.7175 44.3741 70.3538 44.372 69.9838C44.346 69.3506 44.0895 68.7502 43.6528 68.3006C43.2162 67.8511 42.6309 67.5847 42.0121 67.554C41.4095 67.5719 40.8367 67.8263 40.4125 68.2644C39.9883 68.7026 39.7451 69.2909 39.7334 69.9074C39.7233 70.4319 39.9128 70.9398 40.2619 71.3241H40.2471C41.261 72.4197 42.5749 73.1762 44.0165 73.4946C46.511 74.1569 49.5487 73.2965 51.0084 71.0573C51.4277 70.42 51.653 69.67 51.6559 68.9019C51.6493 68.1162 51.4412 67.346 51.0524 66.6683C50.6635 65.9906 50.1076 65.4292 49.4401 65.0403Z" fill="black"/>
<path d="M60.7424 66.0004C60.214 65.0637 59.7077 65.7411 60.1172 66.4804C60.3559 67.0559 60.4921 67.6703 60.5192 68.2948C60.6308 69.3306 60.5636 70.6709 59.7897 71.4481C59.533 71.6931 59.202 71.8409 58.8518 71.8669C57.6826 71.8669 57.1171 70.9076 57.1171 69.2776C57.1171 68.3183 57.1171 63.4436 57.1245 59.4761C57.3635 59.2888 57.6572 59.1895 57.9582 59.1941C58.3461 59.2066 58.7234 59.3265 59.0499 59.5411C59.3764 59.7558 59.6397 60.057 59.8119 60.4128L60.3781 58.4933H57.6936C57.4903 58.4984 57.2911 58.434 57.1275 58.3103V54.1448C57.1275 54.1523 57.1201 54.1448 57.1201 54.1448C57.1127 53.6723 56.6655 53.5128 56.5288 54.305C56.0898 56.7499 51.9722 58.6006 51.6219 58.7224C51.2716 58.8441 51.2871 59.2175 51.7786 59.278C52.3144 59.2931 52.9249 58.8592 53.1563 59.9864C53.1637 62.987 53.1415 68.8815 53.1415 69.4681C53.1415 70.2294 53.3795 73.4969 57.2369 73.4969C61.3079 73.5014 62.1866 68.7568 60.7424 66.0004Z" fill="black"/>
<path d="M80.0729 58.4827C79.8046 58.4827 78.7847 58.4903 78.7847 58.4903C78.0256 58.4903 74.928 58.4978 74.5407 58.4978C74.1535 58.4978 74.183 58.8478 74.3841 58.9779C74.8367 59.2252 75.2052 59.6075 75.4406 60.074C75.6759 60.5405 75.7671 61.0692 75.7019 61.5899C75.3014 62.9419 74.7561 64.2446 74.0759 65.4742C73.928 65.7637 73.659 65.8318 73.4654 65.5883C72.6647 63.8811 72.1643 62.0429 71.9872 60.158C71.9724 59.8458 71.9132 59.4874 72.3567 59.3203C72.8002 59.1533 72.7883 58.4887 72.3641 58.4887H66.8097C66.0056 58.4887 66.8319 59.1896 67.4579 60.065C67.5178 60.1565 67.7927 60.6441 68.1874 61.4356C68.1799 61.4857 68.175 61.5362 68.1726 61.5868C67.7722 62.9389 67.2268 64.2416 66.5466 65.4712C66.3988 65.7607 66.1298 65.8288 65.9361 65.5853C65.1355 63.878 64.6351 62.0398 64.4579 60.155C64.4431 59.8427 64.384 59.4844 64.8275 59.3173C65.2709 59.1502 65.2591 58.4857 64.8348 58.4857H59.2805C58.4763 58.4857 58.9006 59.1865 59.5259 60.062C60.7469 61.8363 61.7827 63.7367 62.6161 65.732C63.3674 67.6106 64.0091 69.5333 64.5377 71.4897C64.6116 71.7566 65.0071 73.3555 65.0662 73.5309C65.1556 73.7902 65.4535 73.8204 65.5429 73.5611C66.1091 71.1775 66.6449 70.1417 68.0522 68.976C68.7373 68.3969 68.1564 68.0317 67.8216 67.842C67.5148 67.6497 67.2345 67.4166 66.9879 67.1487C66.9583 67.0462 66.9496 66.9386 66.9623 66.8324C66.975 66.7263 67.0089 66.624 67.0618 66.5318C67.2554 66.1206 68.1113 63.9803 68.7373 62.5643C69.2339 63.6086 69.7056 64.665 70.152 65.7327C70.9045 67.6109 71.5462 69.5336 72.0736 71.4904C72.1475 71.7573 72.543 73.3563 72.6021 73.5316C72.6915 73.791 72.9894 73.8212 73.0788 73.5619C73.645 71.1782 74.1808 70.1425 75.5881 68.9767C76.2732 68.3976 75.6923 68.0325 75.3575 67.8427C75.0507 67.6505 74.7703 67.4174 74.5238 67.1495C74.4942 67.0469 74.4855 66.9393 74.4983 66.8332C74.511 66.7271 74.5448 66.6248 74.5977 66.5326C74.8586 65.9769 76.3626 62.1841 76.8312 61.4379C77.1169 60.8903 77.5118 60.4101 77.9902 60.0283C78.4686 59.6465 79.02 59.3716 79.6088 59.2213C79.8275 59.1849 80.0403 59.1182 80.2415 59.0232C80.5482 58.7798 80.4137 58.4827 80.0729 58.4827Z" fill="black"/>
<path d="M67.3685 59.907C67.1231 59.6401 66.52 59.0996 66.1918 59.092C66.1507 59.0897 66.1105 59.0787 66.0737 59.0597C66.0369 59.0408 66.0043 59.0143 65.9779 58.982C65.9515 58.9496 65.9319 58.9121 65.9202 58.8716C65.9086 58.8312 65.9052 58.7888 65.9103 58.7469C65.9154 58.7051 65.9288 58.6648 65.9497 58.6285C65.9707 58.5922 65.9987 58.5607 66.032 58.5359C66.0653 58.5112 66.1033 58.4937 66.1435 58.4845C66.1837 58.4753 66.2253 58.4747 66.2657 58.4827C66.7868 58.4903 68.3352 58.4903 68.3352 58.4903L68.2458 59.8155" fill="black"/>
<path d="M83.9281 57.6148C83.7345 57.3177 83.0944 57.5309 82.767 57.7063C81.5402 58.3344 80.4392 59.1918 79.5208 60.2344C78.6128 61.3441 77.9802 62.6618 77.6769 64.0753C77.3736 65.4888 77.4085 66.9563 77.7788 68.353C79.1786 72.9382 84.209 75.2153 87.7633 72.8082C90.0641 71.247 91.0619 68.3909 90.9799 65.6413C90.9563 64.7529 90.8161 63.8719 90.563 63.0217C89.8631 60.6834 87.5992 58.1554 84.9636 58.7881C84.0626 59.0017 83.2438 59.484 82.611 60.1739C81.8667 61.2398 82.7973 61.1869 83.3501 61.1491C86.5068 61.1113 87.9518 64.3402 88.3834 65.7796C88.9008 67.501 89.3065 70.8977 87.0952 71.6666C85.1816 72.3289 83.3124 70.5326 82.2999 68.9934C81.9389 68.3955 81.6252 67.7691 81.3619 67.12C79.761 63.4111 80.8556 60.22 83.0375 58.6664C83.8985 58.0714 84.107 57.9422 83.9281 57.6148Z" fill="black"/>
<path d="M97.9703 57.6148C97.7767 57.3177 97.1366 57.5309 96.8084 57.7063C95.5816 58.3344 94.4806 59.1918 93.5623 60.2344C92.6526 61.3432 92.0191 62.6608 91.7157 64.0747C91.4123 65.4885 91.4482 66.9565 91.8202 68.353C93.2201 72.9382 98.2504 75.2153 101.805 72.8082C104.106 71.247 105.103 68.3909 105.021 65.6413C104.998 64.7529 104.858 63.8719 104.604 63.0217C103.905 60.6834 101.641 58.1554 99.0051 58.7881C98.1041 59.0017 97.2853 59.484 96.6525 60.1739C95.9082 61.2398 96.8387 61.1869 97.3916 61.1491C100.548 61.1113 101.993 64.3402 102.425 65.7796C102.942 67.501 103.348 70.8977 101.137 71.6666C99.2231 72.3289 97.3539 70.5326 96.3413 68.9934C95.9803 68.3955 95.6667 67.7691 95.4034 67.12C93.8025 63.4111 94.8971 60.22 97.0789 58.6664C97.9407 58.0714 98.1492 57.9422 97.9703 57.6148Z" fill="black"/>
<path d="M30.9891 51.6515H30.8996C30.604 51.6591 29.3438 51.6591 29.3438 51.6591H28.0859L25.4051 51.6666H24.5485C24.1095 51.6666 24.1465 52.0628 24.3697 52.2147C24.9731 52.5427 25.4737 53.0384 25.8137 53.6447C26.1537 54.251 26.3193 54.9433 26.2913 55.6417C26.2692 56.5096 24.8693 63.5472 24.1398 66.5629C24.0578 66.7382 23.9092 66.7836 23.8272 66.5553C23.4473 65.3517 23.1198 63.9199 22.7252 62.4578C21.8612 59.2743 20.9454 55.9153 20.5212 53.9739L20.499 53.8825C20.462 53.7313 20.4391 53.5853 20.4096 53.4561C20.3652 53.2745 20.3781 53.0833 20.4463 52.9096C20.5145 52.736 20.6346 52.5888 20.7895 52.4891L20.8338 52.4665C21.0496 52.3448 21.3844 52.2911 21.5042 52.1996C21.8168 51.9562 21.683 51.6591 21.3401 51.6591H21.2507C20.955 51.6666 19.6948 51.6666 19.6948 51.6666H18.4384L15.7576 51.6742H14.8988C14.4598 51.6742 14.4967 52.0703 14.7199 52.2223C15.5114 52.6856 16.1217 53.4148 16.4472 54.2862L16.4916 54.4374L16.9232 55.9221C17.026 56.2944 17.0361 56.6871 16.9528 57.0645C16.3423 59.433 15.1789 63.7286 14.6298 66.1425C14.5625 66.2937 14.4361 66.3482 14.3541 66.2181C14.0119 65.0841 13.714 63.7883 13.3563 62.4638C12.765 60.3009 12.1649 58.0616 11.6955 56.2419C11.5093 54.9318 12.2129 54.9091 12.6335 54.4139C13.003 54.0027 12.5145 53.8197 12.3504 53.8348C10.5337 53.8961 8.95494 51.4285 5.88766 50.6135C5.58218 50.545 5.26977 50.5143 4.95713 50.522C3.64506 50.5206 2.38607 51.0519 1.45664 51.9992C0.5272 52.9465 0.00329505 54.2323 -3.33637e-05 55.5744C-0.0399786 56.7291 0.330066 57.8596 1.04171 58.7569C1.75336 59.6542 2.75851 60.2577 3.87139 60.4559C4.53699 60.5558 5.21601 60.4209 5.79664 60.0734C6.37727 59.7258 6.82489 59.1864 7.06579 58.544C7.06579 58.544 7.28752 57.8507 6.95419 57.7592C6.63415 57.7214 6.59646 58.0941 6.51072 58.4752C6.29267 58.9858 5.90037 59.3979 5.40708 59.6344C4.91379 59.8709 4.35321 59.9156 3.83 59.7604C2.98324 59.5909 2.21895 59.1295 1.66475 58.4531C1.11054 57.7767 0.799969 56.9263 0.784894 56.0439C0.776708 55.5425 0.867576 55.0447 1.05205 54.5802C1.23653 54.1156 1.51081 53.694 1.85846 53.3405C2.20611 52.987 2.61996 52.709 3.0752 52.5231C3.53044 52.3372 4.0177 52.2472 4.50775 52.2586C4.99952 52.2801 5.47644 52.4372 5.88799 52.7134C6.29955 52.9896 6.63041 53.3744 6.84554 53.8273C8.07393 57.6352 10.881 68.1074 11.7524 73.1053C11.9387 74.1561 12.0133 75.5245 12.0651 75.7331C12.0683 75.799 12.0941 75.8616 12.1379 75.9099C12.1818 75.9582 12.2408 75.9892 12.3048 75.9974C12.3687 76.0056 12.4335 75.9905 12.4876 75.9548C12.5418 75.9191 12.5819 75.8649 12.6009 75.8019C13.4051 73.1438 14.4103 71.7883 16.0747 70.5697C16.8877 69.9603 16.8138 70.1047 15.8885 69.2671C15.6276 69.0226 15.4063 68.7373 15.2329 68.4219C15.1023 68.1641 15.0654 67.8673 15.1287 67.5842C15.5086 65.7184 16.6845 61.4765 17.3401 58.9023C17.3507 58.8526 17.3767 58.8076 17.4141 58.7741C17.4516 58.7406 17.4985 58.7202 17.5481 58.716C17.5978 58.7117 17.6474 58.7239 17.6897 58.7506C17.7321 58.7773 17.765 58.8173 17.7835 58.8645L17.8279 59.0157C19.1908 63.867 20.7909 70.1289 21.2011 73.1529C21.349 74.2113 21.3652 75.529 21.4169 75.7422C21.499 76.0446 21.8338 76.1006 21.9528 75.811C22.7569 73.1529 23.7621 71.7974 25.4266 70.5787C26.2396 69.9694 26.1657 70.1138 25.2403 69.2761C25.0791 69.1278 24.9344 68.9617 24.8087 68.781C24.7289 68.6522 24.6747 68.5086 24.6493 68.3583C24.624 68.2081 24.6279 68.0542 24.6609 67.9055C25.2196 65.255 26.4998 59.2765 26.9018 57.9513C27.4024 56.1611 28.3049 54.5154 29.5375 53.1454C29.8191 52.8761 30.1376 52.6502 30.4828 52.4748C30.6986 52.3531 31.0334 52.2994 31.1532 52.2079C31.4732 51.9486 31.3379 51.6515 30.9891 51.6515Z" fill="black"/>
<path d="M29.2773 27.7074H29.1879C28.8923 27.715 27.6321 27.715 27.6321 27.715H26.3756L23.6949 27.7226H22.8383C22.3993 27.7226 22.4362 28.1187 22.6594 28.2631C23.2616 28.5887 23.7615 29.0817 24.1015 29.6854C24.4415 30.2891 24.6078 30.9788 24.5811 31.6749C24.5589 32.4521 22.9129 38.0647 22.0349 41.4084C22.0087 41.4273 21.9766 41.4354 21.9448 41.4312C21.9131 41.427 21.884 41.4108 21.8634 41.3858C21.856 41.3782 21.856 41.3706 21.8486 41.3631C21.5064 40.2359 20.9846 38.9719 20.6276 37.6466C20.0363 35.4988 19.4362 33.2671 18.9669 31.4549C18.7806 30.1523 19.4842 30.1221 19.9048 29.6345C20.2743 29.2232 19.7858 29.0403 19.6217 29.0554C17.805 29.1166 16.2263 26.6642 13.159 25.8492C12.8538 25.7795 12.5409 25.7512 12.2285 25.7653C11.5791 25.7606 10.9353 25.8869 10.3337 26.1368C9.7321 26.3868 9.18458 26.7556 8.72242 27.2222C8.26026 27.6887 7.89252 28.2439 7.64023 28.8559C7.38794 29.4679 7.25604 30.1247 7.25208 30.7889C7.21335 31.9408 7.58433 33.0681 8.29624 33.9615C9.00814 34.855 10.0127 35.4541 11.1235 35.6477C11.7871 35.7477 12.4643 35.6147 13.0444 35.2703C13.6246 34.926 14.0735 34.3906 14.3179 33.7517C14.3179 33.7517 14.5396 33.066 14.2063 32.9745C13.8863 32.9367 13.8486 33.3094 13.7628 33.6829C13.543 34.1918 13.1502 34.6019 12.6572 34.8371C12.1642 35.0723 11.6046 35.1167 11.0821 34.962C10.2367 34.7943 9.47312 34.335 8.91891 33.6608C8.3647 32.9866 8.0534 32.1383 8.037 31.2576C8.02969 30.7572 8.12126 30.2605 8.30623 29.7972C8.4912 29.3339 8.76576 28.9136 9.11343 28.5615C9.46111 28.2094 9.87473 27.9328 10.3295 27.7482C10.7842 27.5637 11.2708 27.475 11.7599 27.4874C12.2507 27.5089 12.7268 27.6652 13.1382 27.9399C13.5496 28.2146 13.881 28.5976 14.0976 29.0486C15.3408 32.8414 18.3638 43.2448 19.2352 48.2177C19.4214 49.2686 19.5626 49.977 19.6151 50.1833C19.6183 50.2492 19.6441 50.3118 19.6879 50.3601C19.7317 50.4084 19.7908 50.4394 19.8548 50.4476C19.9187 50.4558 19.9835 50.4407 20.0376 50.405C20.0918 50.3692 20.1319 50.3151 20.1509 50.2521C20.955 47.6016 21.893 46.9084 23.5611 45.6904C24.3741 45.0856 24.3002 45.2368 23.3749 44.3878C23.1163 44.1441 22.8952 43.8616 22.7193 43.5502C22.6517 43.42 22.6088 43.2779 22.5929 43.1314C23.2854 40.2374 24.8191 35.1495 25.1842 33.9467C25.6868 32.162 26.5893 30.5217 27.8198 29.1559C28.0998 28.8869 28.4187 28.6635 28.7651 28.4937C28.981 28.372 29.3158 28.3183 29.4355 28.2268C29.7533 28.0038 29.6188 27.7074 29.2773 27.7074Z" fill="black"/>
<path d="M59.7299 19.8851C58.3967 19.8993 57.0968 19.4599 56.0343 18.6362C55.9812 18.5903 55.9473 18.5254 55.9397 18.4547C55.932 18.3841 55.9512 18.3131 55.9932 18.2564C56.0352 18.1998 56.0968 18.1618 56.1654 18.1503C56.234 18.1388 56.3043 18.1547 56.3618 18.1947C57.33 18.943 58.5134 19.3418 59.7269 19.3287C60.9354 19.331 62.1126 18.9359 63.0846 18.2015C63.1128 18.1805 63.1447 18.1654 63.1786 18.1571C63.2124 18.1488 63.2476 18.1474 63.2819 18.1531C63.3163 18.1588 63.3492 18.1714 63.3788 18.1903C63.4084 18.2091 63.434 18.2337 63.4542 18.2627C63.4962 18.3225 63.5135 18.3968 63.5023 18.4696C63.4911 18.5423 63.4523 18.6076 63.3943 18.6513C62.3335 19.4578 61.0457 19.8907 59.7239 19.8851H59.7299Z" fill="black"/>
<path d="M54.8303 17.2504C54.7865 17.2498 54.7435 17.2385 54.7049 17.2173C54.6663 17.1961 54.6333 17.1657 54.6086 17.1287C53.8881 16.0694 53.5034 14.8092 53.5066 13.5188C53.506 12.5241 53.7334 11.5431 54.1705 10.6546C54.6076 9.76604 55.2422 8.99468 56.0235 8.40243C56.8048 7.81017 57.711 7.41351 58.6693 7.24429C59.6275 7.07506 60.6113 7.13798 61.5415 7.42799C62.4717 7.71801 63.3224 8.22704 64.0255 8.91423C64.7286 9.60142 65.2644 10.4476 65.5899 11.385C65.9153 12.3223 66.0215 13.3246 65.8997 14.3115C65.778 15.2983 65.4317 16.2422 64.8888 17.0675C64.8495 17.1261 64.7896 17.167 64.7216 17.1818C64.6536 17.1966 64.5827 17.1842 64.5234 17.147C64.4642 17.1099 64.4211 17.0509 64.4031 16.9822C64.3852 16.9135 64.3937 16.8404 64.4269 16.7779C64.4342 16.7704 64.4343 16.7628 64.4416 16.7552C64.9361 16.0011 65.2509 15.139 65.3609 14.2379C65.4709 13.3369 65.3729 12.422 65.0749 11.5667C64.7769 10.7114 64.2871 9.93934 63.6448 9.31255C63.0024 8.68576 62.2255 8.22162 61.3762 7.95736C60.5269 7.69309 59.6288 7.63604 58.7541 7.79079C57.8793 7.94554 57.0522 8.30778 56.339 8.84847C55.6258 9.38915 55.0464 10.0932 54.6472 10.9043C54.248 11.7153 54.0401 12.6108 54.0402 13.5188C54.0311 14.696 54.3826 15.8465 55.0454 16.8089C55.0841 16.8686 55.0986 16.9413 55.0861 17.0117C55.0736 17.0822 55.0349 17.145 54.9782 17.1869C54.961 17.2096 54.9383 17.2272 54.9124 17.238C54.8864 17.2487 54.8581 17.2523 54.8303 17.2482V17.2504Z" fill="black"/>
<path d="M59.7816 16.062C59.4591 16.062 59.1439 15.9642 58.8758 15.7809C58.6076 15.5977 58.3987 15.3372 58.2752 15.0325C58.1518 14.7277 58.1196 14.3924 58.1825 14.0689C58.2454 13.7454 58.4007 13.4482 58.6287 13.215C58.8567 12.9817 59.1472 12.8229 59.4635 12.7585C59.7798 12.6942 60.1076 12.7272 60.4055 12.8535C60.7035 12.9797 60.9581 13.1934 61.1373 13.4677C61.3164 13.742 61.4121 14.0644 61.4121 14.3942C61.4121 14.8366 61.2403 15.2607 60.9345 15.5735C60.6287 15.8863 60.214 16.062 59.7816 16.062ZM59.7816 13.2058C59.5518 13.2058 59.3272 13.2755 59.1361 13.4061C58.945 13.5367 58.7961 13.7223 58.7082 13.9394C58.6202 14.1566 58.5972 14.3956 58.6421 14.6261C58.6869 14.8566 58.7975 15.0684 58.96 15.2346C59.1225 15.4008 59.3295 15.514 59.5549 15.5598C59.7803 15.6057 60.0139 15.5822 60.2262 15.4922C60.4385 15.4023 60.62 15.2499 60.7477 15.0545C60.8753 14.8591 60.9435 14.6293 60.9435 14.3942C60.9431 14.0792 60.8205 13.7771 60.6027 13.5543C60.3849 13.3315 60.0896 13.2062 59.7816 13.2058Z" fill="black"/>
<path d="M58.6131 13.7086C58.5778 13.7088 58.5428 13.7018 58.5102 13.6881C58.4775 13.6744 58.4479 13.6542 58.4229 13.6286C58.398 13.6031 58.3782 13.5728 58.3648 13.5394C58.3514 13.506 58.3446 13.4702 58.3448 13.4341V7.57061C58.3484 7.50041 58.3782 7.43431 58.428 7.38593C58.4779 7.33755 58.544 7.31058 58.6127 7.31058C58.6814 7.31058 58.7475 7.33755 58.7974 7.38593C58.8472 7.43431 58.877 7.50041 58.8806 7.57061V13.4349C58.8807 13.4709 58.8739 13.5065 58.8605 13.5398C58.8471 13.573 58.8273 13.6032 58.8025 13.6286C58.7776 13.6541 58.7481 13.6742 58.7156 13.6879C58.6831 13.7017 58.6482 13.7087 58.6131 13.7086Z" fill="black"/>
<path d="M60.9583 13.7774C60.923 13.7776 60.888 13.7706 60.8553 13.7569C60.8227 13.7432 60.7931 13.723 60.7681 13.6974C60.7432 13.6719 60.7234 13.6416 60.71 13.6082C60.6966 13.5748 60.6898 13.539 60.69 13.5029V7.59328C60.6936 7.52309 60.7234 7.45699 60.7732 7.40861C60.8231 7.36022 60.8892 7.33325 60.9579 7.33325C61.0266 7.33325 61.0927 7.36022 61.1426 7.40861C61.1924 7.45699 61.2222 7.52309 61.2258 7.59328V13.5029C61.226 13.539 61.2192 13.5748 61.2058 13.6082C61.1924 13.6416 61.1726 13.6719 61.1477 13.6974C61.1227 13.723 61.0931 13.7432 61.0604 13.7569C61.0278 13.7706 60.9928 13.7776 60.9575 13.7774H60.9583Z" fill="black"/>
<path d="M59.7897 16.1913C57.7083 16.2485 55.6535 15.702 53.8629 14.615C53.8055 14.5748 53.7655 14.5136 53.7511 14.444C53.7366 14.3745 53.7488 14.3019 53.7851 14.2413C53.8214 14.1807 53.8791 14.1366 53.9462 14.1182C54.0134 14.0999 54.0849 14.1086 54.1459 14.1425C54.1533 14.1501 54.1607 14.1501 54.1681 14.1576C57.0868 16.1452 62.7306 16.1149 65.3441 14.0964C65.4016 14.0564 65.4719 14.0406 65.5404 14.0521C65.609 14.0635 65.6707 14.1015 65.7127 14.1582C65.7547 14.2148 65.7738 14.2858 65.7662 14.3564C65.7585 14.4271 65.7246 14.4921 65.6715 14.5379C63.9251 15.6976 61.8702 16.2749 59.7897 16.1905V16.1913Z" fill="black"/>
<path d="M60.9878 13.8537C60.9162 13.853 60.8476 13.8241 60.7962 13.773C60.7449 13.7219 60.7148 13.6525 60.7121 13.5793C60.7105 13.51 60.7351 13.4427 60.7808 13.3916C60.8266 13.3404 60.8899 13.3093 60.9575 13.3049C62.5121 13.178 64.0176 12.6881 65.3581 11.873C65.4194 11.8368 65.492 11.8261 65.5608 11.8431C65.6296 11.8602 65.6893 11.9036 65.7277 11.9645C65.7648 12.0267 65.7762 12.1015 65.7594 12.1724C65.7427 12.2433 65.6991 12.3044 65.6382 12.3425C64.2287 13.204 62.6439 13.7214 61.007 13.8545L60.9849 13.8469L60.9878 13.8537Z" fill="black"/>
<path d="M58.4638 13.8915H58.4342C56.8699 13.692 55.358 13.185 53.9819 12.3984C53.9186 12.364 53.8714 12.3053 53.8504 12.2353C53.8295 12.1653 53.8366 12.0896 53.8703 12.0249C53.9039 11.9603 53.9612 11.9119 54.0297 11.8905C54.0982 11.8691 54.1722 11.8764 54.2354 11.9108C55.551 12.6655 56.9973 13.1518 58.4941 13.3426C58.5615 13.3515 58.6232 13.3861 58.6667 13.4396C58.7102 13.493 58.7323 13.5613 58.7285 13.6308C58.7248 13.7002 58.6955 13.7656 58.6465 13.8138C58.5975 13.8621 58.5325 13.8896 58.4645 13.8907L58.4638 13.8915Z" fill="black"/>
<path d="M59.7742 9.10075C60.0208 9.10075 60.2206 8.89631 60.2206 8.64412C60.2206 8.39194 60.0208 8.1875 59.7742 8.1875C59.5277 8.1875 59.3278 8.39194 59.3278 8.64412C59.3278 8.89631 59.5277 9.10075 59.7742 9.10075Z" fill="black"/>
<path d="M59.7742 10.6158C60.0208 10.6158 60.2206 10.4113 60.2206 10.1591C60.2206 9.90695 60.0208 9.70251 59.7742 9.70251C59.5277 9.70251 59.3278 9.90695 59.3278 10.1591C59.3278 10.4113 59.5277 10.6158 59.7742 10.6158Z" fill="black"/>
<path d="M59.7742 12.124C60.0208 12.124 60.2206 11.9195 60.2206 11.6673C60.2206 11.4152 60.0208 11.2107 59.7742 11.2107C59.5277 11.2107 59.3278 11.4152 59.3278 11.6673C59.3278 11.9195 59.5277 12.124 59.7742 12.124Z" fill="black"/>
<path d="M62.6929 14.866C62.9272 14.866 63.1172 14.6649 63.1172 14.4169C63.1172 14.1689 62.9272 13.9679 62.6929 13.9679C62.4586 13.9679 62.2687 14.1689 62.2687 14.4169C62.2687 14.6649 62.4586 14.866 62.6929 14.866Z" fill="black"/>
<path d="M64.3529 14.2642C64.5873 14.2642 64.7772 14.0632 64.7772 13.8152C64.7772 13.5671 64.5873 13.3661 64.3529 13.3661C64.1186 13.3661 63.9287 13.5671 63.9287 13.8152C63.9287 14.0632 64.1186 14.2642 64.3529 14.2642Z" fill="black"/>
<path d="M56.8629 14.8509C57.0972 14.8509 57.2871 14.6498 57.2871 14.4018C57.2871 14.1538 57.0972 13.9528 56.8629 13.9528C56.6286 13.9528 56.4386 14.1538 56.4386 14.4018C56.4386 14.6498 56.6286 14.8509 56.8629 14.8509Z" fill="black"/>
<path d="M55.1947 14.2794C55.429 14.2794 55.619 14.0783 55.619 13.8303C55.619 13.5823 55.429 13.3812 55.1947 13.3812C54.9604 13.3812 54.7705 13.5823 54.7705 13.8303C54.7705 14.0783 54.9604 14.2794 55.1947 14.2794Z" fill="black"/>
<path d="M59.8259 18.8191C52.8865 18.8191 45.7091 17.2731 45.7091 14.6838C45.7091 12.917 48.8872 11.4852 54.2051 10.8531L54.6219 10.8078L54.1526 12.2699L53.9885 12.3001C50.6005 12.8792 49.4016 13.8235 49.4016 14.4479C49.4016 15.6742 53.6382 17.0372 59.7291 17.0372C65.8201 17.0372 70.0566 15.6764 70.0566 14.4479C70.0566 13.8235 68.8504 12.8792 65.4623 12.3001L65.2983 12.2699L64.8289 10.7927L65.2458 10.838C69.4528 11.3256 73.9421 12.5897 73.9421 14.6762C73.9347 17.2731 66.7573 18.8191 59.8252 18.8191H59.8259ZM53.8473 11.4542C48.5997 12.1346 46.2449 13.5558 46.2449 14.683C46.2449 16.412 51.7025 18.2703 59.8259 18.2703C67.9494 18.2703 73.407 16.4196 73.407 14.683C73.407 13.3427 70.22 12.0249 65.5961 11.4383L65.7077 11.7883C67.6065 12.1308 70.5925 12.908 70.5925 14.4464C70.5925 16.4876 64.993 17.5838 59.7276 17.5838C54.4623 17.5838 48.8628 16.4869 48.8628 14.4464C48.8628 12.8928 51.8414 12.1157 53.7409 11.7808L53.8451 11.4534L53.8473 11.4542Z" fill="black"/>
<path d="M61.8991 8.14893C60.9834 7.39293 60.1571 5.63599 60.5591 4.8815C60.6101 4.78045 60.684 4.69338 60.7747 4.62761C60.8653 4.56183 60.9701 4.51927 61.0802 4.5035C61.7206 4.54792 62.3239 4.82645 62.7801 5.28823V2.72614C62.0728 3.3128 61.3211 3.67038 60.6877 3.01569C60.1888 2.49783 60.7476 1.27159 61.1571 0.548101H58.4024C59.1245 1.88093 59.1415 2.6649 58.8939 2.9673C58.4505 3.50784 57.7993 3.43224 56.8244 2.70799V5.30108C57.2773 4.85017 57.87 4.57528 58.5 4.52391C58.6136 4.53904 58.7222 4.58056 58.8177 4.6453C58.9131 4.71003 58.9928 4.79626 59.0506 4.89737C59.5791 5.81138 58.4401 7.31128 57.6803 8.05821L57.3108 7.66207C58.1593 6.82442 58.8747 5.66698 58.5916 5.17936C58.5776 5.14861 58.5555 5.12241 58.5279 5.10361C58.5003 5.08481 58.4681 5.07414 58.4349 5.07276C58.0477 5.01909 57.2066 5.65186 56.7446 6.10849L56.2901 6.56209V1.57248L56.7291 1.93839C58.0994 3.0807 58.3891 2.73067 58.4859 2.61879C58.5458 2.51975 58.5828 1.86279 57.7114 0.418068L57.4357 0H62.1209L61.8526 0.426384C61.3093 1.29427 60.8548 2.42147 61.0632 2.63466C61.3086 2.88565 61.6663 3.06105 62.8577 1.91873L63.3123 1.48479V6.54243L62.8577 6.09337C62.381 5.62087 61.5473 4.98129 61.1578 5.04253C61.1291 5.04583 61.1016 5.05669 61.0782 5.07404C61.0547 5.0914 61.0361 5.11466 61.024 5.14156C60.823 5.51956 61.3588 6.99981 62.2302 7.71574L61.8991 8.14893Z" fill="black"/>
<path d="M59.7594 5.48327C59.4501 5.48327 59.1477 5.38945 58.8905 5.21367C58.6334 5.0379 58.4329 4.78806 58.3145 4.49575C58.1962 4.20344 58.1652 3.8818 58.2255 3.57149C58.2859 3.26118 58.4348 2.97614 58.6536 2.75242C58.8723 2.52869 59.1509 2.37634 59.4543 2.31461C59.7577 2.25289 60.0721 2.28457 60.3579 2.40564C60.6437 2.52672 60.8879 2.73176 61.0598 2.99483C61.2316 3.2579 61.3234 3.56718 61.3234 3.88357C61.3235 4.09368 61.2831 4.30174 61.2045 4.49587C61.126 4.69 61.0108 4.86639 60.8655 5.01495C60.7203 5.16352 60.5478 5.28135 60.358 5.3617C60.1682 5.44206 59.9648 5.48337 59.7594 5.48327ZM59.7594 2.76167C59.5429 2.76167 59.3313 2.82733 59.1513 2.95036C58.9713 3.07339 58.831 3.24825 58.7481 3.45284C58.6653 3.65743 58.6436 3.88255 58.6859 4.09974C58.7281 4.31692 58.8323 4.51642 58.9854 4.67301C59.1385 4.82959 59.3335 4.93623 59.5459 4.97943C59.7582 5.02263 59.9783 5.00046 60.1783 4.91571C60.3783 4.83097 60.5493 4.68746 60.6696 4.50334C60.7898 4.31922 60.854 4.10275 60.854 3.8813C60.8536 3.58448 60.7382 3.29993 60.533 3.09004C60.3278 2.88016 60.0496 2.76207 59.7594 2.76167Z" fill="black"/>
</g>
<defs>
<clipPath id="clip0_201_23">
<rect width="120" height="76" fill="white"/>
</clipPath>
</defs>
</svg>
